<?xml version="1.0" encoding="iso-8859-1"?><!-- Generator: Adobe Illustrator 19.1.1, SVG Export Plug-In . SVG Version: 6.00 Build 0)  --><svg xmlns="http://www.w3.org/2000/svg" xmlns:xlink="http://www.w3.org/1999/xlink" viewBox="0 0 48 48" width="96px" height="96px"><g><polygon style="fill:#3F51B5;" points="48,16 48,14 40.469,14 39.809,16 "/><polygon style="fill:#3F51B5;" points="33,31 33,29 29,29 27,29 27,31 "/><polygon style="fill:#3F51B5;" points="39.766,28 40.51,26 34.51,26 35.266,28 "/><rect x="29" y="26" style="fill:#3F51B5;" width="4" height="2"/><rect x="29" y="23" style="fill:#3F51B5;" width="4" height="2"/><polygon style="fill:#3F51B5;" points="42,29 42,31 48,31 48,29 46,29 "/><polygon style="fill:#3F51B5;" points="36.181,19 35.521,17 27,17 27,19 29,19 "/><polygon style="fill:#3F51B5;" points="37.17,22 36.51,20 29,20 29,22 "/><polygon style="fill:#3F51B5;" points="33.378,23 34.133,25 40.883,25 41.628,23 "/><rect x="42" y="23" style="fill:#3F51B5;" width="4" height="2"/><rect x="27" y="32" style="fill:#3F51B5;" width="6" height="2"/><polygon style="fill:#3F51B5;" points="35.191,16 34.531,14 27,14 27,16 "/><polygon style="fill:#3F51B5;" points="36.776,32 37.531,34 38.276,32 "/><rect x="42" y="32" style="fill:#3F51B5;" width="6" height="2"/><polygon style="fill:#3F51B5;" points="39.479,17 38.819,19 46,19 48,19 48,17 "/><polygon style="fill:#3F51B5;" points="39.393,29 35.643,29 36.398,31 38.648,31 "/><rect x="42" y="26" style="fill:#3F51B5;" width="4" height="2"/><polygon style="fill:#3F51B5;" points="38.49,20 37.83,22 46,22 46,20 "/><rect y="14" style="fill:#3F51B5;" width="8" height="2"/><rect y="17" style="fill:#3F51B5;" width="8" height="2"/><rect x="2" y="20" style="fill:#3F51B5;" width="4" height="2"/><rect x="2" y="23" style="fill:#3F51B5;" width="4" height="2"/><rect x="2" y="26" style="fill:#3F51B5;" width="4" height="2"/><rect y="29" style="fill:#3F51B5;" width="8" height="2"/><rect y="32" style="fill:#3F51B5;" width="8" height="2"/><rect x="10" y="17" style="fill:#3F51B5;" width="8" height="2"/><path style="fill:#3F51B5;" d="M24.977,16c-0.913-1.208-2.347-2-3.977-2H10v2h7.023H24.977z"/><path style="fill:#3F51B5;" d="M25.578,17h-9.131C16.171,17.613,16,18.283,16,19h10C26,18.288,25.846,17.613,25.578,17z"/><path style="fill:#3F51B5;" d="M23.975,23H12v2h11.973c-0.833-0.62-1.854-1-2.973-1C22.119,24,23.142,23.621,23.975,23z"/><path style="fill:#3F51B5;" d="M17.023,32H10v2h11c1.63,0,3.065-0.792,3.977-2H17.023z"/><path style="fill:#3F51B5;" d="M18,29h-2h-6v2h6.447H18h7.578C25.846,30.387,26,29.712,26,29H18z"/><g><path style="fill:#3F51B5;" d="M21,20c0,0,0,0.083,0,1s-1,1-1,1h4.979c0.441-0.584,0.77-1.257,0.921-2H21z"/><rect x="12" y="20" style="fill:#3F51B5;" width="5" height="2"/></g><g><path style="fill:#3F51B5;" d="M21,28h4.885c-0.156-0.738-0.467-1.418-0.907-2H20c0,0,1,0.167,1,1S21,28,21,28z"/><rect x="12" y="26" style="fill:#3F51B5;" width="5" height="2"/></g></g></svg>